<?xml version="1.0" encoding="utf-8"?>
<!-- Generator: Adobe Illustrator 16.0.0, SVG Export Plug-In . SVG Version: 6.00 Build 0)  -->
<!DOCTYPE svg PUBLIC "-//W3C//DTD SVG 1.1//EN" "http://www.w3.org/Graphics/SVG/1.1/DTD/svg11.dtd">
<svg version="1.1" xmlns="http://www.w3.org/2000/svg" xmlns:xlink="http://www.w3.org/1999/xlink" x="0px" y="0px" width="100px"
	 height="58.947px" viewBox="0 0 100 58.947" enable-background="new 0 0 100 58.947" xml:space="preserve">
<g id="Layer_1">
	<path d="M2.217,1.371"/>
	<path d="M2.217,15.717v43.23H100v-43.23H2.217z M51.035,55.125c-9.907,0-17.939-8.032-17.939-17.94
		c0-9.907,8.032-17.938,17.939-17.938c9.906,0,17.939,8.032,17.939,17.938C68.975,47.093,60.941,55.125,51.035,55.125z"/>
	<path d="M51.035,21.599c8.607,0,15.585,6.979,15.585,15.583c0,8.609-6.979,15.588-15.585,15.588
		c-8.608,0-15.586-6.979-15.586-15.588C35.449,28.578,42.427,21.599,51.035,21.599"/>
	<path d="M77.852,1.371v15.437h22.164V1.371H77.852z M97.581,12.546H80.207V3.302h17.374V12.546z"/>
	<path d="M56.09,1.372v15.436H78.5V1.371L56.09,1.372z M78.042,9.518H63.375v-6.17h14.667V9.518z"/>
	<line fill="none" stroke="#000000" stroke-miterlimit="10" x1="1.813" y1="8.739" x2="1.813" y2="58.947"/>
	<line fill="none" stroke="#000000" stroke-miterlimit="10" x1="100.016" y1="1.371" x2="40.5" y2="1.371"/>
</g>
<g id="Layer_2">
	<path d="M2.217,8.725L40.5,8.611V1.307h18.645v15.234H2.217V8.739 M50,3.593c2.126,0,3.851,1.725,3.851,3.851
		S52.127,11.295,50,11.295c-2.127,0-3.851-1.725-3.851-3.851S47.874,3.593,50,3.593z"/>
</g>
</svg>
