<?xml version="1.0" encoding="utf-8"?>
<!-- Generator: Adobe Illustrator 16.0.0, SVG Export Plug-In . SVG Version: 6.00 Build 0)  -->
<!DOCTYPE svg PUBLIC "-//W3C//DTD SVG 1.1//EN" "http://www.w3.org/Graphics/SVG/1.1/DTD/svg11.dtd">
<svg version="1.1" id="Layer_1" xmlns="http://www.w3.org/2000/svg" xmlns:xlink="http://www.w3.org/1999/xlink" x="0px" y="0px"
	 width="612px" height="792px" viewBox="0 0 612 792" enable-background="new 0 0 612 792" xml:space="preserve">
<g>
	<path fill="#555555" d="M169.853,303.908h277.603c16.985,0,31.316-13.801,31.316-31.317s-13.8-31.316-31.316-31.316H169.853
		c-16.985,0-31.316,13.8-31.316,31.316S152.336,303.908,169.853,303.908z"/>
	<path fill="#555555" d="M446.925,373.972H169.853c-16.985,0-31.316,13.801-31.316,31.317c0,16.985,13.8,31.316,31.316,31.316
		h277.603c16.985,0,31.316-13.801,31.316-31.316C478.241,388.304,464.44,373.972,446.925,373.972z"/>
	<path fill="#555555" d="M446.925,493.399H169.853c-16.985,0-31.316,13.801-31.316,31.317c0,16.984,13.8,31.316,31.316,31.316
		h277.603c16.985,0,31.316-13.801,31.316-31.316C478.241,507.731,464.44,493.399,446.925,493.399z"/>
</g>
</svg>
